# xmcd
#
# Track frame offsets: 
#        150
#        12576
#        24104
#        33716
#        46511
#        58785
#        72133
#        84788
#        98357
#        111788
#        122945
#        136835
#        147479
#        157652
#        170505
#        181569
#        196235
#        209552
#        226377
#
# Disc length: 3247 seconds
#
# Revision: 15
# Processed by: cddbd v1.5.2PL0 Copyright (c) Steve Scherf et al.
# Submitted via: ExactAudioCopy v1.3
#
DISCID=ee0cad13
DTITLE=Marvin Gaye - Gold
DYEAR=2005
DGENRE=Soul
TTITLE0=Stubborn Kind Of Fellow
TTITLE1=Hitch Hike
TTITLE2=Pride And Joy
TTITLE3=Can I Get A Witness
TTITLE4=You're A Wonderful One
TTITLE5=How Sweet It Is (To Be Loved By You)
TTITLE6=I'll Be Doggone
TTITLE7=Ain't That Peculiar
TTITLE8=It Takes Two (Duet With Kim Weston)
TTITLE9=Ain't No Mountain High Enough (Duet With Tammi Terrell)
TTITLE10=Your Precious Love (Duet With Tammi Terrell)
TTITLE11=If I Could Build My Whole World Around You (Duet With Tammi T
TTITLE11=errell)
TTITLE12=Ain't Nothing Like The Real Thing (Duet With Tammi Terrell)
TTITLE13=You're All I Need To Get By (Duet With Tammi Terrell)
TTITLE14=You
TTITLE15=I Heard It Through The Grapevine
TTITLE16=Too Busy Thinking About My Baby
TTITLE17=That's The Way Love Is
TTITLE18=His Eye Is On The Sparrow (Previously Unreleased Stereo Mix)
EXTD=YEAR: 2006
EXTT0=
EXTT1=
EXTT2=
EXTT3=
EXTT4=
EXTT5=
EXTT6=
EXTT7=
EXTT8=
EXTT9=
EXTT10=
EXTT11=
EXTT12=
EXTT13=
EXTT14=
EXTT15=
EXTT16=
EXTT17=
EXTT18=
PLAYORDER=
